HIERARCHY
ROOT Hips
{
	OFFSET 0.000000 0.000000 0.000000 
	CHANNELS 6 Xposition Yposition Zposition Yrotation Zrotation Xrotation 
	JOINT Lumbar
	{
		OFFSET 0.000000 0.000000 0.000000 
		CHANNELS 3 Zrotation Xrotation Yrotation
		JOINT Neck
		{
			OFFSET 0.000000 0.445665 0.000000 
			CHANNELS 3 Zrotation Xrotation Yrotation
			End Site
			{
				OFFSET 0.000000 0.227535 0.000000 
			}
		}
		JOINT RightShoulder
		{
			OFFSET 0.019635 0.377685 0.194865 
			CHANNELS 3 Zrotation Xrotation Yrotation
			JOINT RightElbow
			{
				OFFSET 0.000000 -0.243375 0.000000 
				CHANNELS 2 Zrotation Yrotation
				JOINT RightWrist
				{
					OFFSET 0.000000 -0.264825 0.000000 
					CHANNELS 2 Zrotation Xrotation
					End Site
					{
						OFFSET 0.006600 -0.176220 0.000990 
					}
				}
			}
		}
		JOINT LeftShoulder
		{
			OFFSET 0.019635 0.377685 -0.194865 
			CHANNELS 3 Zrotation Xrotation Yrotation
			JOINT LeftElbow
			{
				OFFSET 0.000000 -0.243375 0.000000 
				CHANNELS 2 Zrotation Yrotation
				JOINT LeftWrist
				{
					OFFSET 0.000000 -0.264825 0.000000 
					CHANNELS 2 Zrotation Xrotation
					End Site
					{
						OFFSET 0.006600 -0.176220 -0.000990 
					}
				}
			}
		}
	}
	JOINT RightHip
	{
		OFFSET 0.052140 -0.069960 0.075570 
		CHANNELS 3 Zrotation Xrotation Yrotation
		JOINT RightKnee
		{
			OFFSET 0.000000 -0.402270 0.000000 
			CHANNELS 1 Zrotation
			JOINT RightAnkle
			{
				OFFSET 0.000000 -0.404085 0.000000 
				CHANNELS 3 Zrotation Xrotation Yrotation
				End Site
				{
					OFFSET 0.204105 -0.089430 0.008415 
				}
			}
		}
	}
	JOINT LeftHip
	{
		OFFSET 0.052140 -0.069960 -0.075570 
		CHANNELS 3 Zrotation Xrotation Yrotation
		JOINT LeftKnee
		{
			OFFSET 0.000000 -0.402270 0.000000 
			CHANNELS 1 Zrotation
			JOINT LeftAnkle
			{
				OFFSET 0.000000 -0.404085 0.000000 
				CHANNELS 3 Zrotation Xrotation Yrotation
				End Site
				{
					OFFSET 0.204105 -0.089430 -0.008415 
				}
			}
		}
	}
}
MOTION
Frames: 22
Frame Time: 0.02
-0.11061 -0.05566 -0.07551 26.61151 -14.87288 6.25781 41.57215 -1.23563 -5.39022 -14.68578 -17.5971 -2.11991 -59.51991 -51.77414 7.41061 88.99671 88.14005 11.26731 -1.19611 -44.70877 55.30606 -10.36422 95.36769 -84.58339 13.50819 2.28774 43.68666 1.46699 -22.46785 -54.35003 -7.54547 -2.42907 -3.47507 32.03628 -9.80915 32.18971 -29.41141 -6.5624 0.37833 2.44153
-0.11123 -0.05513 -0.07358 26.41697 -14.69846 6.17358 41.29427 -1.22641 -4.91948 -15.76254 -17.22767 -2.11991 -59.8391 -50.1502 8.50609 89.53212 87.9725 10.85464 -0.99567 -48.79941 52.28492 -7.42434 97.39824 -85.66428 13.35283 1.96894 44.51216 1.59099 -22.03546 -55.52094 -7.86294 -2.45899 -3.5038 31.93256 -9.72031 31.91039 -29.32835 -6.5682 0.42952 2.46577
-0.11209 -0.05447 -0.07154 26.29674 -14.47091 6.04744 40.91332 -1.21776 -4.44858 -16.76619 -16.89642 -2.11991 -60.38184 -48.98846 10.19573 90.66915 87.51375 9.28219 -1.0203 -51.65015 48.89229 -5.27971 99.16744 -86.9284 12.67327 1.59956 45.50007 1.69979 -21.56015 -56.90699 -8.24788 -2.4992 -3.53963 31.77135 -9.61465 31.5718 -29.21878 -6.54962 0.45914 2.47947
-0.11285 -0.05387 -0.06956 26.14893 -14.26933 5.93239 40.5774 -1.20543 -3.99035 -17.79269 -16.55353 -2.11991 -60.77565 -47.67695 11.6691 91.50517 87.16507 8.19744 -0.94525 -55.00287 45.6952 -2.80541 101.02546 -88.17377 12.26533 1.24269 46.40737 1.81557 -21.12893 -58.15555 -8.58721 -2.53583 -3.57213 31.63587 -9.50947 31.25956 -29.11875 -6.46916 0.46642 2.481
-0.11357 -0.0533 -0.06756 25.97767 -14.05822 5.85025 40.24752 -1.20766 -3.47809 -18.86653 -16.18601 -2.11992 -61.33865 -46.11887 12.96995 92.47409 86.9166 7.28455 -0.85454 -58.62447 42.34759 -0.1697 103.00792 -89.16271 11.71022 0.93431 47.34704 1.93114 -20.5941 -59.58678 -8.98941 -2.56835 -3.60531 31.49932 -9.43389 30.95281 -29.02827 -6.67505 0.59932 2.54889
-0.11444 -0.05262 -0.06557 25.87187 -13.85574 5.68939 39.88124 -1.17947 -3.07833 -19.8218 -15.87899 -2.11992 -61.62019 -45.16827 14.73222 93.3021 86.39319 5.75173 -0.84967 -61.38752 39.24296 1.93084 104.66798 -90.70928 11.34945 0.51432 48.25556 2.0434 -20.26528 -60.67334 -9.27759 -2.61137 -3.63856 31.35375 -9.29315 30.61571 -28.91243 -6.30491 0.47725 2.48225
-0.11564 -0.05169 -0.06367 25.92869 -13.682 5.32709 39.43905 -1.06937 -2.99367 -20.4823 -15.73058 -2.11992 -60.99248 -45.94322 17.85008 93.60171 85.11625 2.59549 -1.05298 -62.08752 36.86461 2.73652 105.52195 -93.91627 11.51645 -0.23801 49.04913 2.15157 -20.50886 -60.87131 -9.224 -2.68442 -3.67151 31.18083 -8.97267 30.25681 -28.72833 -4.12467 -0.44372 1.99384
-0.11698 -0.05065 -0.06179 26.04844 -13.52064 4.88602 38.96414 -0.92824 -3.0217 -21.02263 -15.64169 -2.11992 -60.09004 -47.28609 21.36653 93.73481 83.5834 -1.1125 -1.33176 -61.96387 34.7575 3.02548 106.05537 -97.64306 11.91154 -1.09452 49.80323 2.25681 -20.96135 -60.69191 -9.05507 -2.76694 -3.704 31.00428 -8.58745 29.86224 -28.5209 -1.40461 -1.60323 1.37954
-0.11827 -0.04966 -0.0599 26.13892 -13.35883 4.47766 38.50479 -0.79987 -2.99524 -21.60841 -15.52497 -2.11992 -59.36947 -48.26218 24.54455 93.93701 82.20865 -4.44192 -1.55888 -62.21367 32.55134 3.55946 106.72531 -101.0287 12.30467 -1.88135 50.56808 2.36237 -21.32407 -60.60981 -8.94579 -2.84283 -3.73589 30.84016 -8.2352 29.45108 -28.32692 0.91624 -2.5858 0.85866
-0.11952 -0.04869 -0.05801 26.23476 -13.17249 4.08138 38.03876 -0.67721 -2.98209 -22.23167 -15.4127 -2.11992 -58.42198 -49.70645 28.40026 94.18914 80.64649 -8.34697 -1.86401 -62.42548 30.21948 4.03869 107.43258 -104.88085 12.29317 -2.76692 51.36943 2.47115 -21.66803 -60.85205 -8.80873 -2.92908 -3.77152 30.62769 -7.8696 29.17003 -28.11869 3.87445 -3.85219 0.18786
-0.12088 -0.04765 -0.05612 26.33353 -13.04189 3.64111 37.58039 -0.53527 -2.96861 -22.74762 -15.305 -2.11993 -57.87102 -50.31279 30.94092 94.2887 79.41891 -11.17416 -2.02544 -62.53509 28.23122 4.50006 107.97951 -107.86086 13.1316 -3.46742 52.0827 2.57338 -22.09552 -60.32193 -8.7008 -2.99564 -3.79904 30.5168 -7.51385 28.61818 -27.93655 5.64953 -4.59168 -0.20459
-0.12253 -0.04647 -0.05421 26.42334 -13.05402 3.10483 37.15085 -0.34785 -2.92121 -23.01086 -15.19365 -2.11993 -58.5511 -48.3951 29.66604 94.01427 79.1675 -10.84286 -1.73858 -62.5848 27.02578 5.20527 108.25108 -108.49644 16.72875 -3.66147 52.56705 2.65139 -22.75127 -57.79064 -8.70512 -3.00722 -3.80535 30.67965 -7.2258 27.25828 -27.81829 3.88184 -3.74932 0.23843
-0.12428 -0.04523 -0.0523 26.51375 -13.12376 2.52617 36.73104 -0.14223 -2.87055 -23.16801 -15.08499 -2.11993 -59.62569 -45.62736 27.06826 93.58817 79.26441 -9.41225 -1.30952 -62.56229 26.17937 5.88173 108.35924 -108.20572 21.09124 -3.66 52.96295 2.72337 -23.4746 -54.48954 -8.74171 -2.99822 -3.80326 30.94665 -6.94575 25.63928 -27.72947 0.93089 -2.38079 0.95943
-0.12598 -0.04403 -0.0504 26.6047 -13.17251 1.96292 36.30715 0.05539 -2.82501 -23.3647 -14.97603 -2.11993 -60.4736 -43.2909 25.12833 93.22356 79.21084 -8.50825 -0.96616 -62.56559 25.23334 6.46774 108.48245 -108.2053 24.79612 -3.72782 53.39481 2.80376 -24.13574 -51.51035 -8.76088 -2.99751 -3.8043 31.1712 -6.64549 24.18567 -27.63684 -1.38342 -1.29845 1.52931
-0.12771 -0.04278 -0.04846 26.69485 -13.19909 1.41269 35.87936 0.25362 -2.76822 -23.59352 -14.86524 -2.11993 -61.51264 -40.77722 22.95856 92.88316 79.11761 -7.50426 -0.53677 -62.5694 24.01998 7.47804 108.83537 -108.75034 29.80612 -3.88111 53.84116 2.86371 -24.93864 -48.62416 -8.78784 -3.00182 -3.80831 31.37468 -6.41144 22.53363 -27.50438 -4.09376 -0.02726 2.19866
-0.1294 -0.04161 -0.0466 26.78548 -13.28618 0.82687 35.46399 0.45368 -2.73239 -23.73208 -14.75817 -2.11993 -62.25018 -38.43274 20.95433 92.46065 79.18997 -6.44754 -0.25154 -62.5653 23.45559 7.59734 108.68647 -107.96317 32.28964 -3.80959 54.23946 2.96034 -25.45758 -45.3813 -8.80755 -2.99041 -3.80402 31.6472 -6.04411 21.22884 -27.4604 -6.2706 0.98056 2.72948
-0.13102 -0.04068 -0.04492 26.88096 -13.5193 0.14884 35.06772 0.6611 -2.75641 -23.6454 -14.66011 -2.11993 -62.0667 -36.67796 19.6725 91.8295 79.66339 -5.44651 -0.40114 -62.5678 24.49692 5.33749 107.09478 -103.45513 27.50311 -3.15623 54.50233 3.19828 -25.19198 -41.21581 -8.80163 -2.94297 -3.78003 32.08163 -5.29119 20.98921 -27.66888 -6.65847 1.11701 2.80168
-0.13261 -0.03983 -0.04332 26.97578 -13.81249 -0.56223 34.68627 0.86827 -2.80056 -23.47249 -14.56552 -2.11993 -61.5672 -35.13478 18.61039 91.12551 80.28758 -4.44034 -0.70012 -62.56709 26.18924 2.17741 105.022 -97.68461 20.17194 -2.28493 54.72348 3.46608 -24.63427 -36.74407 -8.78776 -2.88002 -3.74782 32.58242 -4.40725 21.0999 -27.96252 -6.47616 0.9743 2.72699
-0.13419 -0.03892 -0.0417 27.0683 -14.08278 -1.25509 34.30653 1.07097 -2.8345 -23.341 -14.46942 -2.11993 -61.20697 -33.54919 17.48569 90.46781 80.82472 -3.47767 -0.92881 -62.56511 27.65537 -0.62488 103.23667 -92.66743 14.06722 -1.51812 54.98134 3.69508 -24.19857 -32.49623 -8.77617 -2.82251 -3.71853 33.05514 -3.5937 21.02259 -28.20738 -6.57496 0.97068 2.72549
-0.13585 -0.03809 -0.04 27.1723 -14.33685 -1.96343 33.89112 1.29381 -2.87404 -23.19643 -14.37313 -2.11993 -60.87385 -31.71169 16.16343 89.7481 81.45105 -2.30221 -1.16205 -62.57161 28.86796 -3.23903 101.16099 -86.86541 7.67059 -0.71974 55.16584 4.03073 -23.81041 -27.86072 -8.76992 -2.77077 -3.69215 33.52327 -2.73403 21.05886 -28.4963 -6.62217 0.93369 2.70647
-0.13733 -0.03713 -0.03848 27.25166 -14.63778 -2.64621 33.55384 1.47427 -2.90529 -23.05984 -14.27808 -2.11993 -60.41017 -30.45474 15.3149 89.14343 81.92421 -1.58427 -1.424 -62.56067 30.72358 -6.42427 99.57032 -82.40354 1.29669 0.0598 55.48851 4.15097 -23.25331 -23.97361 -8.75194 -2.70399 -3.65815 34.01463 -1.93994 20.9438 -28.71266 -6.62567 0.89306 2.68543
-0.13838 -0.03582 -0.03743 27.26823 -15.05696 -3.25523 33.42516 1.5387 -2.92137 -22.9685 -14.18518 -2.11993 -59.60866 -30.8008 15.78926 88.86563 81.92522 -2.12248 -1.7207 -62.50391 34.49648 -11.26083 99.50505 -82.01285 -4.6445 0.7531 56.25363 3.67271 -22.29857 -22.20438 -8.68859 -2.59614 -3.60284 34.55969 -1.35247 20.33917 -28.71323 -6.64636 0.90845 2.69369
